<svg width="200" height="200" viewBox="0 0 200 200" fill="none" xmlns="http://www.w3.org/2000/svg">
<g clip-path="url(#clip0_104_8)">
<rect width="200" height="200" rx="50" fill="white"/>
<path d="M100.844 58.7188C92.3144 58.7188 83.9767 61.248 76.8848 65.9866C69.7929 70.7253 64.2655 77.4605 61.0014 85.3405C57.7374 93.2206 56.8834 101.892 58.5474 110.257C60.2114 118.622 64.3186 126.307 70.3498 132.338C76.3809 138.369 84.065 142.476 92.4305 144.14C100.796 145.804 109.467 144.95 117.347 141.686C125.227 138.422 131.962 132.895 136.701 125.803C141.44 118.711 143.969 110.373 143.969 101.844C143.969 90.4063 139.425 79.4373 131.338 71.3498C123.25 63.2623 112.281 58.7188 100.844 58.7188ZM100.844 130.594C95.1575 130.594 89.599 128.908 84.8711 125.748C80.1432 122.589 76.4582 118.099 74.2822 112.846C72.1062 107.593 71.5368 101.812 72.6462 96.2349C73.7555 90.658 76.4937 85.5352 80.5144 81.5144C84.5352 77.4937 89.658 74.7555 95.2349 73.6462C100.812 72.5368 106.593 73.1062 111.846 75.2822C117.099 77.4582 121.589 81.1432 124.748 85.8711C127.908 90.599 129.594 96.1575 129.594 101.844C129.57 109.461 126.533 116.76 121.147 122.147C115.76 127.533 108.461 130.57 100.844 130.594ZM140.375 12H61.3125C47.9688 12 35.1716 17.3008 25.7362 26.7362C16.3008 36.1716 11 48.9688 11 62.3125V141.375C11 154.719 16.3008 167.516 25.7362 176.951C35.1716 186.387 47.9688 191.688 61.3125 191.688H140.375C153.719 191.688 166.516 186.387 175.951 176.951C185.387 167.516 190.688 154.719 190.688 141.375V62.3125C190.688 48.9688 185.387 36.1716 175.951 26.7362C166.516 17.3008 153.719 12 140.375 12V12ZM176.312 141.375C176.313 146.094 175.383 150.768 173.577 155.128C171.771 159.488 169.124 163.45 165.787 166.787C162.45 170.124 158.488 172.771 154.128 174.577C149.768 176.383 145.094 177.312 140.375 177.312H61.3125C56.5931 177.313 51.92 176.383 47.5598 174.577C43.1997 172.771 39.238 170.124 35.9009 166.787C32.5637 163.45 29.9166 159.488 28.1106 155.128C26.3046 150.768 25.375 146.094 25.375 141.375V62.3125C25.375 52.7813 29.1613 43.6404 35.9009 36.9009C42.6404 30.1613 51.7813 26.375 61.3125 26.375H140.375C145.094 26.375 149.768 27.3046 154.128 29.1106C158.488 30.9166 162.45 33.5637 165.787 36.9009C169.124 40.238 171.771 44.1997 173.577 48.5598C175.383 52.92 176.312 57.5931 176.312 62.3125V141.375ZM158.344 55.125C158.344 57.2573 157.711 59.3418 156.527 61.1147C155.342 62.8877 153.658 64.2696 151.688 65.0856C149.718 65.9016 147.551 66.1151 145.459 65.6991C143.368 65.2831 141.447 64.2563 139.939 62.7485C138.431 61.2407 137.404 59.3197 136.988 57.2283C136.572 55.137 136.786 52.9692 137.602 50.9992C138.418 49.0292 139.8 47.3454 141.573 46.1607C143.346 44.9761 145.43 44.3438 147.562 44.3438C150.422 44.3438 153.164 45.4796 155.186 47.5015C157.208 49.5234 158.344 52.2656 158.344 55.125Z" fill="#2AA6FF"/>
</g>
<defs>
<clipPath id="clip0_104_8">
<rect width="200" height="200" rx="50" fill="white"/>
</clipPath>
</defs>
</svg>
